<svg width="815" height="353" viewBox="0 0 815 353" fill="none" xmlns="http://www.w3.org/2000/svg">
<g clip-path="url(#clip0_1332_567)">
<path fill-rule="evenodd" clip-rule="evenodd" d="M155.295 92.8903L176.634 0.613281L194.124 82.1702L226.474 20.663L206.54 114.227L251.266 72.0222L225.156 122.139L334.646 83.023L251.794 159.657L301.118 159.612L241.983 178.572L292.96 211.114L267.387 209.325L344.542 277.291L228.656 237.607L256.223 281.797L204.932 245.306L221.702 304.418L192.377 262.661L166.669 352.176L155.081 259.194L123.044 308.595L142.569 244.567L96.0964 291.085L123.964 232.047L0.433594 283.83L96.2358 206.055L38.2374 201.917L111.573 181.684L46.6962 161.236L98.747 156.396L27.9554 90.2959L113.479 118.623L88.4252 77.7996L141.414 121.144L134.384 56.6291L155.295 92.8903Z" fill="black"/>
<path fill-rule="evenodd" clip-rule="evenodd" d="M156.538 101.347L139.127 71.1582L145.371 128.472L100.925 92.1169L120.703 124.342L40.6593 97.8309L106.019 158.858L62.4309 162.912L122.589 181.874L56.4942 200.106L104.265 203.518L19 272.738L130.183 226.13L106.436 276.443L149.132 233.705L132.395 288.595L157.154 250.415L167.914 336.751L191.239 255.533L213.628 287.411L199.484 237.555L245.195 270.077L221.303 231.777L330.554 269.188L258.346 205.581L280.878 207.158L234.717 177.688L281.264 162.764L243.931 162.798L321.555 90.998L218.828 127.701L240.159 86.7487L201.481 123.249L218.817 41.873L192.872 91.2044L176.516 14.9414L156.538 101.347Z" fill="#FF0000"/>
<path fill-rule="evenodd" clip-rule="evenodd" d="M150.087 104.859L154.507 145.433L129.916 125.316L137.428 137.561L70.1289 115.27L122.864 164.509L98.9416 166.734L148.13 182.239L98.871 195.827L122.868 197.54L62.0938 246.879L144.578 212.301L130.401 242.333L164.318 208.382L154.059 242.025L161.906 229.927L170.74 300.818L188.528 238.883L194.793 247.804L186.75 219.457L219.49 242.751L204.142 218.148L297.974 250.279L237.268 196.803L252.728 197.884L217.757 175.559L235.044 170.016L225.582 170.024L291.056 109.462L204.048 140.548L214.281 120.906L189.653 144.146L200.954 91.1011L189.893 112.13L176.179 48.1699L159.355 120.928L150.087 104.859Z" fill="#FF6600"/>
<path fill-rule="evenodd" clip-rule="evenodd" d="M157.642 128.035L160.812 157.125L147.439 146.187L90.3789 127.287L134.454 168.442L124.024 169.413L165.69 182.545L127.978 192.948L135.664 193.496L91.6933 229.195L154.488 202.871L146.878 218.99L174.775 191.067L165.782 220.56L172.716 276.225L185.267 232.528L178.054 207.101L201.893 224.062L192.407 208.855L275.659 237.362L222.842 190.837L233.452 191.579L206.16 174.156L218.14 170.313L270.171 122.185L193.946 149.419L196.564 144.393L181.575 158.537L188.736 124.93L187.888 126.541L175.982 71.0234L161.323 134.419L157.642 128.035Z" fill="#FFFF00"/>
<path fill-rule="evenodd" clip-rule="evenodd" d="M173.905 207.754L169.938 220.761L174.305 255.802L180.96 232.627L173.905 207.754ZM176.228 183.832L142.443 193.15L116.156 214.493L162.647 195.004L160.474 199.601L176.228 183.832ZM163.425 143.276L165.982 166.742L145.308 149.832L107.105 137.176L143.519 171.176L178.007 182.039L183.388 176.653L176.099 200.552L187.277 208.504L182.644 201.08L257.131 226.607L210.85 185.836L217.441 186.298L196.504 172.934L216.07 166.661L252.824 132.666L191.668 154.516L174.83 170.397L183.899 127.828L175.764 89.8906L163.425 143.276Z" fill="white"/>
<path fill-rule="evenodd" clip-rule="evenodd" d="M173.092 86.1406C227.424 86.1406 271.468 130.185 271.468 184.517C271.468 238.849 227.424 282.896 173.092 282.896C118.759 282.896 74.7148 238.849 74.7148 184.517C74.7148 130.185 118.759 86.1406 173.092 86.1406Z" fill="black"/>
<path fill-rule="evenodd" clip-rule="evenodd" d="M173.092 90.5254C224.993 90.5254 267.068 132.6 267.068 184.503C267.068 236.405 224.993 278.48 173.092 278.48C121.192 278.48 79.1133 236.407 79.1133 184.503C79.1133 132.598 121.186 90.5254 173.092 90.5254Z" fill="#B27D2F"/>
<path fill-rule="evenodd" clip-rule="evenodd" d="M145.266 94.7224C145.825 94.5413 146.384 94.3856 146.946 94.2227C147.173 94.329 147.366 94.4981 147.501 94.7101C147.636 94.922 147.708 95.1681 147.708 95.4194V97.9198C157.621 95.0102 207.855 83.3106 245.777 131.574C245.993 131.849 246.091 132.198 246.05 132.546C246.008 132.893 245.831 133.21 245.556 133.426C245.28 133.641 244.931 133.739 244.583 133.697C244.236 133.656 243.919 133.478 243.702 133.203C202.679 80.9913 146.977 100.911 146.815 100.976L145.066 101.577V95.4212C145.067 95.1749 145.136 94.9334 145.266 94.7242" fill="#FFFF00"/>
<path fill-rule="evenodd" clip-rule="evenodd" d="M130.375 101.613C130.375 101.439 130.409 101.268 130.476 101.107C130.542 100.947 130.639 100.802 130.762 100.679C130.885 100.556 131.031 100.459 131.191 100.393C131.351 100.327 131.523 100.293 131.697 100.293C132.047 100.293 132.382 100.432 132.63 100.68C132.877 100.927 133.017 101.263 133.017 101.613V117.567C138.752 115.501 157.087 109.306 170.398 109.48C170.571 109.481 170.742 109.517 170.901 109.586C171.06 109.654 171.204 109.752 171.325 109.876C171.446 110 171.541 110.146 171.605 110.307C171.669 110.468 171.701 110.639 171.698 110.812C171.694 111.16 171.552 111.493 171.303 111.736C171.053 111.98 170.718 112.114 170.37 112.11C154.951 111.906 132.233 120.669 132.167 120.694L130.377 121.378V101.613H130.375Z" fill="#FFFF00"/>
<path fill-rule="evenodd" clip-rule="evenodd" d="M138.201 97.2357C138.717 97.0293 139.233 96.8302 139.751 96.6328C140.019 96.7188 140.253 96.8881 140.418 97.116C140.583 97.344 140.671 97.6187 140.669 97.9002V107.833C149.778 104.469 191.327 91.6756 227.884 122.48C228.016 122.591 228.125 122.727 228.205 122.88C228.285 123.033 228.334 123.2 228.349 123.372C228.364 123.545 228.345 123.718 228.292 123.883C228.24 124.047 228.156 124.2 228.045 124.332C227.82 124.598 227.499 124.765 227.152 124.795C226.805 124.824 226.46 124.715 226.193 124.491C186.18 90.7667 139.994 110.912 139.86 110.978L138.027 111.753V97.8911C138.029 97.6605 138.091 97.4345 138.208 97.2357" fill="#FFFF00"/>
<path fill-rule="evenodd" clip-rule="evenodd" d="M123.461 105.615C123.461 105.265 123.6 104.929 123.848 104.682C124.095 104.434 124.431 104.295 124.781 104.295C125.131 104.295 125.467 104.434 125.714 104.682C125.962 104.929 126.101 105.265 126.101 105.615V127.178C134.972 122.404 171.967 105.314 211.791 128.306L212.452 128.686V224.251C212.451 224.602 212.312 224.937 212.064 225.185C211.816 225.432 211.48 225.571 211.13 225.571C210.781 225.571 210.445 225.431 210.198 225.184C209.951 224.937 209.812 224.601 209.812 224.251V130.216C165.816 105.294 125.585 130.499 125.465 130.578L123.461 131.81V105.615Z" fill="#FFFF00"/>
<path fill-rule="evenodd" clip-rule="evenodd" d="M107.296 117.418C107.644 117.08 107.988 116.739 108.337 116.406C108.419 116.391 108.502 116.383 108.586 116.383C108.936 116.383 109.272 116.522 109.519 116.769C109.767 117.017 109.907 117.352 109.907 117.703V128.227C109.907 128.577 109.767 128.913 109.519 129.161C109.272 129.408 108.936 129.547 108.586 129.547C108.236 129.547 107.9 129.407 107.653 129.16C107.405 128.913 107.266 128.577 107.266 128.227V117.703C107.266 117.607 107.276 117.512 107.296 117.418Z" fill="#FFFF00"/>
<path fill-rule="evenodd" clip-rule="evenodd" d="M99.9731 125.52C100.437 124.947 100.907 124.378 101.384 123.814C101.717 123.838 102.03 123.987 102.258 124.231C102.486 124.476 102.613 124.798 102.613 125.133V134.33C105.995 134.33 114.58 134.422 114.58 135.655C114.58 136.017 114.399 136.343 114.068 136.944C111.577 141.487 96.4933 168.991 99.7396 191.85H132.758C133.108 191.851 133.443 191.99 133.69 192.237C133.938 192.484 134.077 192.819 134.078 193.168C134.078 193.342 134.044 193.514 133.978 193.674C133.912 193.834 133.815 193.98 133.692 194.103C133.569 194.226 133.424 194.323 133.264 194.39C133.103 194.456 132.932 194.49 132.758 194.49H97.4964L97.3153 193.388C93.2561 169.416 109.169 140.404 111.763 135.677C111.881 135.463 111.944 135.976 111.944 135.655C111.944 134.64 101.355 136.972 101.324 136.972L99.9786 137.001V125.52H99.9731Z" fill="#FFFF00"/>
<path fill-rule="evenodd" clip-rule="evenodd" d="M92.5745 135.946C92.7972 135.584 93.0252 135.222 93.2516 134.86C93.4483 134.751 93.6695 134.694 93.8943 134.693C94.0679 134.694 94.2397 134.728 94.3999 134.795C94.5602 134.861 94.7058 134.959 94.8283 135.082C94.9509 135.205 95.048 135.35 95.1142 135.511C95.1804 135.671 95.2145 135.843 95.2142 136.017V141.296H105.317L103.84 143.382C103.805 143.429 91.9154 160.055 92.3191 183.141C92.3245 183.49 92.1911 183.827 91.9484 184.077C91.7057 184.328 91.3734 184.472 91.0246 184.477C90.852 184.48 90.6806 184.449 90.5201 184.385C90.3596 184.321 90.2132 184.227 90.0893 184.107C89.9654 183.986 89.8664 183.843 89.7979 183.684C89.7295 183.526 89.6929 183.355 89.6903 183.183C89.3535 164.098 97.1497 149.225 100.352 143.938H92.5672V135.953L92.5745 135.946Z" fill="#FFFF00"/>
<path fill-rule="evenodd" clip-rule="evenodd" d="M221.137 265.31C220.264 265.83 219.383 266.336 218.495 266.827V263.47C154.471 297.613 109.59 249.627 109.458 249.488L107.32 247.255H117.232V208.887H85.3218L85.0793 207.871C77.8372 177.49 85.845 157.339 88.903 151.167H85.6948C85.5437 151.168 85.3935 151.142 85.2512 151.091C85.5807 150.231 85.9176 149.375 86.2706 148.525H93.4638L92.2362 150.531C92.1982 150.591 79.3616 171.085 87.4148 206.245H119.874V249.897H113.662C123.535 258.9 164.244 290.668 219.172 260.115L221.131 259.029V265.313L221.137 265.31Z" fill="#FFFF00"/>
<path fill-rule="evenodd" clip-rule="evenodd" d="M98.9074 242.199C98.2315 241.332 97.5713 240.452 96.9267 239.559H109.747V216.097H84.5663C84.2549 215.226 83.9567 214.349 83.6719 213.466C83.7247 213.459 83.7779 213.455 83.8312 213.455H112.389V242.199H98.9074Z" fill="#FFFF00"/>
<path fill-rule="evenodd" clip-rule="evenodd" d="M93.706 234.833C93.187 234.012 92.6794 233.183 92.1833 232.345C92.375 232.245 92.588 232.192 92.8043 232.191H102.572V223.175H87.4072C87.0161 222.309 86.6413 221.433 86.2773 220.553C86.3545 220.541 86.4327 220.535 86.5109 220.535H105.215V234.838H93.706V234.833Z" fill="#FFFF00"/>
<path fill-rule="evenodd" clip-rule="evenodd" d="M254.873 138.152C255.245 138.804 255.607 139.46 255.959 140.12C255.844 140.324 255.677 140.494 255.475 140.613C255.272 140.731 255.042 140.793 254.808 140.794H241.298V177.96H266.853C266.913 178.837 266.96 179.717 266.996 180.602H238.656V138.152H254.871H254.873Z" fill="#FFFF00"/>
<path fill-rule="evenodd" clip-rule="evenodd" d="M264.64 163.386C264.818 164.156 264.985 164.928 265.142 165.701C264.909 165.887 264.621 165.987 264.323 165.987H257.003C256.83 165.987 256.658 165.953 256.498 165.887C256.338 165.82 256.192 165.723 256.07 165.6C255.947 165.477 255.85 165.332 255.784 165.171C255.717 165.011 255.683 164.839 255.684 164.666C255.684 164.316 255.823 163.98 256.07 163.732C256.318 163.485 256.653 163.346 257.003 163.346H264.323C264.43 163.346 264.537 163.359 264.64 163.386Z" fill="#FFFF00"/>
<path fill-rule="evenodd" clip-rule="evenodd" d="M258.657 145.601C259.028 146.415 259.39 147.234 259.744 148.058C259.539 148.179 259.306 148.241 259.068 148.239H248.122V170.732H266.066C266.187 171.595 266.302 172.461 266.412 173.33C266.303 173.358 266.191 173.372 266.079 173.373H245.48V145.6H258.661L258.657 145.601Z" fill="#FFFF00"/>
<path fill-rule="evenodd" clip-rule="evenodd" d="M228.465 260.432C227.598 261.063 226.721 261.682 225.834 262.29C225.881 261.649 225.847 254.569 225.825 250.583C215.945 257.961 173.265 285.553 124.6 253.117L124.012 252.726V202.836C124.012 202.662 124.046 202.49 124.112 202.33C124.179 202.17 124.276 202.024 124.399 201.902C124.522 201.779 124.667 201.682 124.828 201.616C124.988 201.549 125.16 201.515 125.333 201.516C125.684 201.516 126.019 201.655 126.267 201.902C126.514 202.15 126.653 202.485 126.653 202.836V251.292C180.245 286.509 226.14 246.992 226.274 246.878L228.412 245.068L228.439 247.869C228.439 247.899 228.486 256.197 228.465 260.425" fill="#FFFF00"/>
<path fill-rule="evenodd" clip-rule="evenodd" d="M250.264 238.133C249.649 239.018 249.02 239.893 248.378 240.76C248.152 240.652 247.962 240.483 247.828 240.272C247.695 240.06 247.624 239.815 247.625 239.565V231.331L247.806 231.021C247.844 230.956 260.342 209.132 260.852 187.931H234.507C234.334 187.931 234.162 187.896 234.002 187.83C233.842 187.764 233.696 187.666 233.573 187.543C233.451 187.421 233.354 187.275 233.287 187.115C233.221 186.954 233.187 186.782 233.188 186.609C233.188 186.259 233.327 185.923 233.574 185.676C233.822 185.428 234.157 185.289 234.507 185.289H263.512V186.611C263.512 207.421 251.841 229.158 250.272 231.995L250.264 238.133Z" fill="#FFFF00"/>
<path fill-rule="evenodd" clip-rule="evenodd" d="M243.232 247.052C242.716 247.627 242.194 248.197 241.665 248.761C241.361 248.706 241.086 248.546 240.887 248.308C240.689 248.071 240.58 247.772 240.579 247.463V229.567L240.776 229.245C240.805 229.196 251.183 212.27 253.001 195.654H223.902V124.656L224.304 124.267L226.102 122.525C226.353 122.282 226.69 122.148 227.039 122.152C227.388 122.157 227.721 122.3 227.965 122.551C228.209 122.801 228.343 123.138 228.338 123.488C228.333 123.837 228.19 124.17 227.94 124.414L226.542 125.766V193.013H255.873L255.759 194.438C254.466 210.76 244.714 227.739 243.213 230.286L243.232 247.052Z" fill="#FFFF00"/>
<path fill-rule="evenodd" clip-rule="evenodd" d="M236.066 254.257C235.201 255.039 234.317 255.803 233.425 256.551V226.882L233.636 226.549C233.663 226.509 242.419 212.908 244.378 202.355H223.224C223.051 202.355 222.879 202.321 222.718 202.255C222.558 202.188 222.412 202.091 222.29 201.969C222.167 201.846 222.069 201.7 222.003 201.54C221.937 201.38 221.902 201.208 221.902 201.035C221.902 200.861 221.937 200.689 222.003 200.529C222.069 200.369 222.167 200.223 222.29 200.101C222.412 199.978 222.558 199.881 222.718 199.815C222.879 199.749 223.051 199.715 223.224 199.715H247.416L247.235 201.194C245.944 211.532 237.515 225.328 236.072 227.628L236.066 254.257Z" fill="#FFFF00"/>
<path fill-rule="evenodd" clip-rule="evenodd" d="M209.381 248.76C209.526 248.666 209.689 248.602 209.859 248.572C210.03 248.541 210.205 248.544 210.374 248.581C210.543 248.618 210.703 248.687 210.845 248.786C210.987 248.885 211.109 249.011 211.202 249.156C211.391 249.45 211.455 249.807 211.38 250.149C211.306 250.49 211.099 250.788 210.806 250.978C210.701 251.043 174.541 274.802 132.048 249.797L131.392 249.413V180.175H111.477L111.636 178.716C111.645 178.64 114.337 152.476 126.765 136.02L126.926 135.81L127.159 135.674C127.286 135.598 171.729 109.454 204.576 132.642L205.137 133.036V229.615L204.634 230.014C204.59 230.044 189.894 241.907 167.967 237.487L166.904 237.272V158.596H145.989V163.348H162.41V225.022C162.41 225.195 162.376 225.367 162.31 225.527C162.243 225.688 162.146 225.833 162.023 225.956C161.9 226.078 161.755 226.176 161.594 226.242C161.434 226.308 161.262 226.342 161.089 226.342C160.915 226.342 160.743 226.308 160.583 226.242C160.423 226.176 160.277 226.078 160.154 225.956C160.031 225.833 159.934 225.688 159.868 225.527C159.801 225.367 159.767 225.195 159.767 225.022V165.99H143.349V155.954H169.54V235.108C187.401 238.3 199.886 230.2 202.492 228.319V134.416C172.388 113.79 132.111 135.884 128.709 137.818C118.543 151.442 115.185 171.934 114.43 177.534H134.036V247.905C174.827 271.453 209.278 248.823 209.377 248.76" fill="#FFFF00"/>
<path fill-rule="evenodd" clip-rule="evenodd" d="M216.671 228.079C216.951 227.869 217.303 227.779 217.649 227.827C217.995 227.876 218.308 228.059 218.52 228.338C218.73 228.617 218.821 228.969 218.772 229.315C218.724 229.661 218.54 229.974 218.261 230.185C218.158 230.264 182.916 257.332 151.849 243.235L149.957 246.804C155.954 249.7 185.32 261.148 225.947 230.708V224.86L226.184 224.516C226.206 224.487 232.883 214.877 234.63 209.308H222.624C222.451 209.308 222.279 209.273 222.119 209.207C221.959 209.14 221.813 209.043 221.69 208.92C221.568 208.798 221.471 208.652 221.404 208.492C221.338 208.331 221.304 208.159 221.304 207.986C221.304 207.636 221.443 207.3 221.691 207.053C221.939 206.805 222.274 206.666 222.624 206.666H237.815L237.599 208.171C236.862 213.332 229.959 223.656 228.588 225.669V232.022L228.061 232.423C180.763 268.202 147.612 248.562 147.516 248.507L146.41 247.874L147.008 246.747L150.102 240.901L150.699 239.773L151.847 240.335C181.721 254.933 216.572 228.159 216.664 228.081" fill="#FFFF00"/>
<path fill-rule="evenodd" clip-rule="evenodd" d="M123.105 170.35C123.049 170.514 122.962 170.665 122.848 170.795C122.733 170.925 122.595 171.032 122.439 171.108C122.284 171.185 122.115 171.23 121.942 171.241C121.769 171.252 121.596 171.229 121.432 171.173C121.268 171.118 121.117 171.031 120.987 170.917C120.857 170.803 120.75 170.664 120.674 170.509C120.598 170.353 120.553 170.185 120.542 170.012C120.531 169.839 120.554 169.666 120.61 169.502C120.626 169.448 127.242 149.858 133.271 140.947L133.492 140.619L133.854 140.467C133.977 140.414 177.35 122.253 197.299 137.016L197.842 137.413V224.988L195.799 223.652L188.706 219.009L188.106 218.617V151.001H183.658V219.705C183.658 220.055 183.518 220.39 183.271 220.637C183.023 220.885 182.688 221.024 182.338 221.025C181.988 221.025 181.652 220.885 181.404 220.638C181.156 220.391 181.017 220.055 181.016 219.705V148.359H190.75V217.188L195.202 220.101V138.754C177.231 126.301 139.344 141.09 135.241 142.75C129.462 151.526 123.123 170.294 123.11 170.35" fill="#FFFF00"/>
<path fill-rule="evenodd" clip-rule="evenodd" d="M229.117 121.521C229.456 121.521 229.791 121.588 230.104 121.717C230.417 121.847 230.702 122.037 230.941 122.276C231.181 122.515 231.371 122.8 231.501 123.113C231.631 123.426 231.697 123.761 231.697 124.1C231.697 124.784 231.425 125.44 230.942 125.924C230.458 126.408 229.802 126.68 229.117 126.68C228.779 126.68 228.443 126.613 228.13 126.483C227.817 126.354 227.533 126.163 227.294 125.924C227.054 125.684 226.864 125.4 226.735 125.087C226.605 124.774 226.539 124.438 226.539 124.1C226.539 123.761 226.605 123.426 226.735 123.113C226.864 122.8 227.054 122.516 227.294 122.276C227.533 122.037 227.817 121.847 228.13 121.717C228.443 121.588 228.779 121.521 229.117 121.521Z" fill="#FFFF00"/>
<path fill-rule="evenodd" clip-rule="evenodd" d="M239.969 136.908C240.308 136.908 240.643 136.974 240.956 137.104C241.269 137.233 241.553 137.423 241.793 137.663C242.033 137.902 242.223 138.186 242.352 138.499C242.482 138.812 242.549 139.148 242.549 139.486C242.55 139.826 242.484 140.162 242.355 140.476C242.225 140.79 242.035 141.075 241.796 141.315C241.556 141.556 241.271 141.746 240.958 141.877C240.644 142.007 240.308 142.074 239.969 142.074C239.285 142.073 238.629 141.801 238.146 141.317C237.662 140.834 237.391 140.178 237.391 139.494C237.391 138.81 237.662 138.154 238.146 137.671C238.629 137.187 239.285 136.915 239.969 136.915" fill="#FFFF00"/>
<path fill-rule="evenodd" clip-rule="evenodd" d="M254.348 162.252C255.032 162.252 255.688 162.524 256.172 163.008C256.656 163.491 256.928 164.148 256.928 164.832C256.928 165.516 256.656 166.172 256.172 166.656C255.688 167.14 255.032 167.412 254.348 167.412C253.664 167.411 253.008 167.139 252.525 166.656C252.041 166.172 251.77 165.516 251.77 164.832C251.77 164.148 252.041 163.492 252.525 163.008C253.008 162.524 253.664 162.252 254.348 162.252Z" fill="#FFFF00"/>
<path fill-rule="evenodd" clip-rule="evenodd" d="M232.813 183.785C233.497 183.785 234.152 184.057 234.636 184.54C235.12 185.024 235.392 185.679 235.393 186.363C235.393 187.048 235.121 187.704 234.637 188.188C234.153 188.672 233.497 188.943 232.813 188.943C232.474 188.943 232.138 188.877 231.826 188.747C231.513 188.617 231.228 188.427 230.989 188.188C230.749 187.948 230.56 187.664 230.43 187.351C230.301 187.038 230.234 186.702 230.234 186.363C230.234 185.68 230.506 185.024 230.989 184.54C231.473 184.057 232.129 183.785 232.813 183.785Z" fill="#FFFF00"/>
<path fill-rule="evenodd" clip-rule="evenodd" d="M236.32 205.402C236.659 205.402 236.995 205.469 237.308 205.598C237.621 205.728 237.905 205.917 238.145 206.157C238.384 206.396 238.574 206.681 238.704 206.993C238.834 207.306 238.9 207.642 238.9 207.981C238.9 208.319 238.834 208.655 238.704 208.968C238.574 209.28 238.384 209.565 238.145 209.804C237.905 210.044 237.621 210.234 237.308 210.363C236.995 210.492 236.659 210.559 236.32 210.559C235.637 210.559 234.981 210.287 234.497 209.804C234.014 209.32 233.742 208.664 233.742 207.981C233.742 207.297 234.014 206.641 234.497 206.157C234.981 205.674 235.637 205.402 236.32 205.402Z" fill="#FFFF00"/>
<path fill-rule="evenodd" clip-rule="evenodd" d="M218.014 225.973C218.352 225.972 218.687 226.039 219 226.168C219.313 226.298 219.598 226.487 219.837 226.727C220.077 226.966 220.267 227.25 220.397 227.563C220.526 227.875 220.593 228.211 220.594 228.549C220.594 228.888 220.527 229.224 220.398 229.537C220.268 229.85 220.078 230.134 219.838 230.374C219.599 230.614 219.314 230.804 219.001 230.933C218.688 231.063 218.352 231.129 218.014 231.129C217.329 231.129 216.673 230.857 216.189 230.373C215.705 229.89 215.434 229.233 215.434 228.549C215.435 227.865 215.707 227.21 216.191 226.727C216.674 226.244 217.33 225.973 218.014 225.973Z" fill="#FFFF00"/>
<path fill-rule="evenodd" clip-rule="evenodd" d="M212.316 246.199C213.001 246.2 213.657 246.472 214.14 246.955C214.624 247.439 214.896 248.095 214.896 248.779C214.897 249.118 214.83 249.454 214.701 249.767C214.571 250.08 214.381 250.364 214.141 250.604C213.902 250.844 213.617 251.034 213.304 251.163C212.991 251.293 212.655 251.359 212.316 251.359C211.978 251.359 211.642 251.292 211.329 251.163C211.017 251.033 210.732 250.843 210.493 250.603C210.253 250.364 210.063 250.079 209.934 249.766C209.805 249.453 209.738 249.118 209.738 248.779C209.738 248.095 210.01 247.439 210.493 246.956C210.977 246.472 211.633 246.2 212.316 246.199Z" fill="#FFFF00"/>
<path fill-rule="evenodd" clip-rule="evenodd" d="M118.523 245.988C118.862 245.988 119.198 246.055 119.51 246.185C119.823 246.314 120.108 246.504 120.347 246.744C120.587 246.984 120.777 247.268 120.906 247.581C121.035 247.894 121.102 248.23 121.102 248.568C121.102 249.252 120.83 249.908 120.347 250.391C119.863 250.875 119.207 251.146 118.523 251.146C117.84 251.146 117.184 250.875 116.7 250.391C116.217 249.908 115.945 249.252 115.945 248.568C115.945 248.23 116.012 247.894 116.141 247.581C116.271 247.268 116.46 246.984 116.7 246.744C116.939 246.504 117.224 246.314 117.536 246.185C117.849 246.055 118.185 245.988 118.523 245.988Z" fill="#FFFF00"/>
<path fill-rule="evenodd" clip-rule="evenodd" d="M125.271 197.73C125.61 197.73 125.946 197.797 126.259 197.927C126.572 198.057 126.857 198.247 127.096 198.487C127.336 198.727 127.526 199.011 127.656 199.324C127.785 199.638 127.852 199.973 127.851 200.312C127.851 200.996 127.579 201.652 127.095 202.135C126.611 202.619 125.955 202.89 125.271 202.89C124.587 202.89 123.931 202.619 123.448 202.135C122.964 201.652 122.692 200.996 122.691 200.312C122.691 199.973 122.758 199.638 122.887 199.324C123.017 199.011 123.207 198.727 123.446 198.487C123.686 198.247 123.971 198.057 124.284 197.927C124.597 197.797 124.932 197.73 125.271 197.73Z" fill="#FFFF00"/>
<path fill-rule="evenodd" clip-rule="evenodd" d="M90.9823 182.504C91.666 182.504 92.3214 182.776 92.8048 183.26C93.2882 183.743 93.56 184.398 93.5605 185.082C93.5607 185.421 93.4942 185.756 93.3648 186.069C93.2353 186.382 93.0455 186.667 92.806 186.906C92.5666 187.146 92.2823 187.336 91.9694 187.466C91.6565 187.595 91.3211 187.662 90.9823 187.662C90.6435 187.662 90.3078 187.596 89.9947 187.466C89.6816 187.337 89.397 187.147 89.1574 186.907C88.9178 186.667 88.7278 186.383 88.5982 186.07C88.4687 185.757 88.4021 185.421 88.4023 185.082C88.4028 184.398 88.6749 183.742 89.1586 183.259C89.6424 182.775 90.2984 182.504 90.9823 182.504Z" fill="#FFFF00"/>
<path fill-rule="evenodd" clip-rule="evenodd" d="M121.164 168.916C121.503 168.916 121.839 168.982 122.152 169.112C122.465 169.242 122.749 169.432 122.989 169.671C123.229 169.911 123.419 170.195 123.548 170.508C123.678 170.822 123.744 171.157 123.744 171.496C123.744 172.18 123.472 172.836 122.988 173.319C122.504 173.803 121.848 174.074 121.164 174.074C120.48 174.074 119.825 173.803 119.341 173.319C118.858 172.836 118.586 172.18 118.586 171.496C118.586 171.157 118.652 170.822 118.782 170.509C118.911 170.196 119.101 169.911 119.34 169.672C119.58 169.432 119.864 169.242 120.177 169.112C120.49 168.983 120.825 168.916 121.164 168.916Z" fill="#FFFF00"/>
<path fill-rule="evenodd" clip-rule="evenodd" d="M161.106 162.086C161.789 162.086 162.445 162.358 162.929 162.841C163.412 163.325 163.684 163.98 163.684 164.664C163.684 165.003 163.617 165.338 163.488 165.651C163.359 165.964 163.169 166.249 162.929 166.488C162.69 166.728 162.406 166.918 162.093 167.048C161.78 167.177 161.444 167.244 161.106 167.244C160.422 167.244 159.766 166.972 159.282 166.488C158.799 166.004 158.527 165.348 158.527 164.664C158.528 163.98 158.8 163.325 159.283 162.842C159.766 162.358 160.422 162.086 161.106 162.086Z" fill="#FFFF00"/>
<path fill-rule="evenodd" clip-rule="evenodd" d="M102.238 140.039C102.922 140.039 103.578 140.31 104.062 140.794C104.546 141.277 104.818 141.933 104.818 142.617C104.818 143.301 104.546 143.957 104.062 144.441C103.578 144.925 102.922 145.196 102.238 145.197C101.554 145.196 100.899 144.924 100.415 144.441C99.9317 143.957 99.6602 143.301 99.6602 142.617C99.6597 142.278 99.726 141.942 99.8554 141.629C99.9847 141.316 100.175 141.031 100.414 140.792C100.653 140.552 100.938 140.362 101.251 140.232C101.564 140.102 101.899 140.035 102.238 140.035" fill="#FFFF00"/>
<path fill-rule="evenodd" clip-rule="evenodd" d="M172.826 107.793C173.51 107.793 174.165 108.064 174.649 108.547C175.133 109.03 175.405 109.686 175.406 110.369C175.406 111.054 175.134 111.71 174.65 112.194C174.167 112.678 173.51 112.949 172.826 112.949C172.487 112.95 172.152 112.883 171.838 112.753C171.525 112.624 171.241 112.434 171.001 112.194C170.762 111.955 170.572 111.67 170.442 111.357C170.312 111.044 170.246 110.708 170.246 110.369C170.246 110.031 170.313 109.695 170.443 109.383C170.572 109.07 170.762 108.786 171.002 108.546C171.242 108.307 171.526 108.117 171.839 107.988C172.152 107.859 172.487 107.792 172.826 107.793Z" fill="#FFFF00"/>
<path fill-rule="evenodd" clip-rule="evenodd" d="M189.484 169.7V159.691C186.882 157.667 184.293 155.623 181.699 153.594H163.271C160.675 155.623 158.086 157.667 155.486 159.691V205.844C158.086 207.868 160.675 209.912 163.271 211.941H181.699C184.293 209.912 186.882 207.868 189.484 205.844V204.292H167.85V169.7H189.484ZM145.796 119.005V98.0684H170.419V119.002H174.563V98.0684H199.177V119.002H206.501L207.756 119.988C214.954 125.638 222.157 131.283 229.364 136.922L231.13 138.309V227.244L229.364 228.633C222.177 234.285 214.953 239.887 207.756 245.527L206.501 246.513H199.177V267.447H174.563V246.519H170.419V267.452H145.796V246.519H138.472L137.221 245.536C130.023 239.894 122.797 234.29 115.609 228.638L113.844 227.249V138.309L115.609 136.922C122.802 131.266 130.005 125.622 137.218 119.988L138.472 119.002L145.796 119.005Z" fill="black"/>
<path fill-rule="evenodd" clip-rule="evenodd" d="M140.113 241.913H150.458V262.846H165.831V241.913H179.217V262.846H194.59V241.913H204.935L226.544 225.021V174.342H172.512V199.69H194.146V208.127L183.328 216.584H161.721L150.905 208.127V157.448L161.721 148.993H183.328L194.146 157.448V165.885H226.544V140.574L204.935 123.644H194.59V102.709H179.217V123.644H165.831V102.709H150.458V123.644H140.113L118.508 140.574V225.021L140.113 241.913Z" fill="#00A651"/>
<path fill-rule="evenodd" clip-rule="evenodd" d="M210.343 165.885H226.542V141.342V140.574L220.151 135.566L204.935 123.644H194.59V102.709H181.09H179.218V106.634V123.644H165.831V102.709H159.902H150.458V123.644H140.593H140.113L131.607 130.309L130.365 131.283L118.508 140.574V180.953V183.971V225.023L134.705 216.575V149.013L150.916 136.318H153.234H157.722H194.132L210.343 149.013V165.885Z" fill="#005E2D"/>
<path fill-rule="evenodd" clip-rule="evenodd" d="M150.833 208.142L134.633 216.588L150.844 229.262H194.06L210.271 216.588V187.029L194.072 199.705V208.142L183.256 216.597H161.649L150.833 208.142Z" fill="#005E2D"/>
<path fill-rule="evenodd" clip-rule="evenodd" d="M172.488 187.025L210.319 187.023L226.518 174.35H172.488V187.025Z" fill="#005E2D"/>
<path d="M363.368 138.512H379.627V161.672C376.347 163.915 372.54 165.636 368.206 166.836C364.05 168.01 359.754 168.615 355.436 168.635C349.512 168.635 344.198 167.422 339.493 164.996C334.788 162.57 331.1 159.18 328.429 154.825C325.759 150.47 324.423 145.528 324.422 139.998C324.421 134.469 325.756 129.526 328.429 125.17C331.097 120.815 334.825 117.425 339.612 114.999C344.399 112.572 349.806 111.359 355.833 111.359C361.278 111.359 366.155 112.259 370.465 114.059C374.776 115.859 378.359 118.48 381.214 121.924L369.236 132.329C365.747 128.313 361.596 126.305 356.783 126.305C352.659 126.305 349.381 127.531 346.948 129.982C344.516 132.434 343.3 135.773 343.3 139.998C343.3 144.119 344.503 147.431 346.909 149.934C349.314 152.438 352.527 153.69 356.546 153.691C358.885 153.699 361.203 153.247 363.368 152.361V138.512Z" fill="white"/>
<path d="M433.872 153.453V167.38H387.703V112.609H432.834V126.536H406.111V132.952H429.588V146.254H406.111V153.453H433.872Z" fill="white"/>
<path d="M453.096 126.929H436.836V112.609H488.074V126.929H471.815V167.38H453.096V126.929Z" fill="white"/>
<path d="M523.978 167.109C519.614 166.092 516.032 164.722 513.23 163.001L519.258 149.543C522.056 151.121 525.041 152.343 528.142 153.183C531.211 154.065 534.387 154.526 537.58 154.551C540.172 154.551 542.023 154.303 543.133 153.807C544.244 153.311 544.799 152.568 544.799 151.578C544.799 150.431 544.075 149.57 542.626 148.997C541.178 148.423 538.785 147.797 535.447 147.117C531.165 146.233 527.596 145.281 524.74 144.262C521.877 143.239 519.314 141.518 517.284 139.254C515.17 136.933 514.112 133.791 514.112 129.827C514.086 126.467 515.112 123.184 517.047 120.437C519.002 117.62 521.924 115.403 525.812 113.786C529.7 112.168 534.418 111.359 539.968 111.359C543.743 111.356 547.507 111.763 551.194 112.572C554.869 113.382 558.108 114.569 560.911 116.134L555.28 129.514C549.833 126.801 544.677 125.445 539.813 125.443C535 125.443 532.594 126.59 532.594 128.883C532.594 129.979 533.308 130.801 534.736 131.348C536.164 131.894 538.517 132.482 541.797 133.109C546.022 133.891 549.591 134.791 552.504 135.809C555.4 136.816 558.002 138.523 560.08 140.777C562.221 143.07 563.291 146.2 563.291 150.166C563.321 153.514 562.294 156.785 560.357 159.516C558.4 162.308 555.478 164.524 551.592 166.166C547.705 167.807 542.986 168.629 537.435 168.632C532.906 168.643 528.39 168.132 523.978 167.109Z" fill="white"/>
<path d="M618.404 167.38L618.247 142.42L606.19 162.451H597.942L585.885 143.282V167.38H568.832V112.609H584.221L602.305 141.795L619.914 112.609H635.304L635.463 167.38H618.404Z" fill="white"/>
<path d="M682.338 157.835H661.24L657.512 167.38H638.477L662.747 112.609H681.149L705.41 167.38H686.057L682.338 157.835ZM677.182 144.533L671.788 130.762L666.395 144.533H677.182Z" fill="white"/>
<path d="M732.253 153.609H727.184V167.38H708.465V112.609H735.186C740.315 112.609 744.781 113.444 748.584 115.113C752.388 116.783 755.322 119.182 757.389 122.312C759.452 125.441 760.482 129.092 760.481 133.266C760.481 137.179 759.583 140.595 757.785 143.515C755.988 146.435 753.398 148.757 750.015 150.48L761.674 167.38H741.686L732.253 153.609ZM739.709 128.531C738.441 127.41 736.536 126.849 733.997 126.849H727.177V139.682H733.997C736.532 139.682 738.436 139.122 739.709 138C740.982 136.879 741.617 135.301 741.612 133.266C741.612 131.231 740.978 129.652 739.709 128.531Z" fill="white"/>
<path d="M778.77 126.931H762.512V112.611H813.75V126.931H797.489V167.382H778.77V126.931Z" fill="white"/>
<path d="M439.739 205.922V211.874H427.899V250.402H420.603V211.874H408.699V205.922H439.739ZM489.176 250.85C485.037 250.85 481.219 249.89 477.72 247.97C474.264 246.008 471.512 243.298 469.464 239.842C467.459 236.344 466.456 232.418 466.456 228.066C466.456 223.714 467.459 219.81 469.464 216.354C471.512 212.898 474.264 210.21 477.72 208.29C481.219 206.328 485.037 205.346 489.176 205.346C493.357 205.346 497.176 206.328 500.632 208.29C504.131 210.21 506.883 212.898 508.888 216.354C510.893 219.81 511.896 223.714 511.896 228.066C511.896 232.418 510.893 236.344 508.888 239.842C506.883 243.298 504.131 246.008 500.632 247.97C497.176 249.89 493.357 250.85 489.176 250.85ZM489.176 244.514C492.12 244.514 494.744 243.853 497.048 242.53C499.352 241.165 501.144 239.245 502.424 236.77C503.747 234.253 504.408 231.352 504.408 228.066C504.408 224.781 503.747 221.901 502.424 219.426C501.144 216.952 499.352 215.053 497.048 213.73C494.744 212.408 492.12 211.746 489.176 211.746C486.232 211.746 483.608 212.408 481.304 213.73C479 215.053 477.187 216.952 475.864 219.426C474.584 221.901 473.944 224.781 473.944 228.066C473.944 231.352 474.584 234.253 475.864 236.77C477.187 239.245 479 241.165 481.304 242.53C483.608 243.853 486.232 244.514 489.176 244.514ZM565.348 250.402L548.132 230.498V250.402H540.836V205.922H548.132V226.21L565.412 205.922H574.564L555.236 228.194L574.884 250.402H565.348ZM610.392 211.81V224.866H625.752V230.818H610.392V244.45H627.672V250.402H603.096V205.858H627.672V211.81H610.392ZM694.962 250.402H687.666L665.714 217.186V250.402H658.418V205.858H665.714L687.666 239.01V205.858H694.962V250.402Z" fill="white"/>
</g>
<defs>
<clipPath id="clip0_1332_567">
<rect width="813.648" height="351.562" fill="white" transform="translate(0.40625 0.613281)"/>
</clipPath>
</defs>
</svg>
